<svg xmlns="http://www.w3.org/2000/svg" xml:space="preserve" width="1127.433" height="300" viewBox="0 0 1127.433 300"><defs><radialGradient id="b" cx="0" cy="0" r="1" fx="0" fy="0" gradientTransform="matrix(11.72212 0 0 -11.72212 65.199 134.89)" gradientUnits="userSpaceOnUse" spreadMethod="pad"><stop offset="0" style="stop-opacity:1;stop-color:#74beea"/><stop offset="0.24109863" style="stop-opacity:1;stop-color:#0091d1"/><stop offset="0.275284" style="stop-opacity:1;stop-color:#0091d1"/><stop offset="1" style="stop-opacity:1;stop-color:#143f91"/></radialGradient><clipPath id="a" clipPathUnits="userSpaceOnUse"><path d="M66.368 134v-6.611c0-.63.179-4.174 4.372-5.598 4.195 1.424 4.375 4.968 4.375 5.598V134z"/></clipPath></defs><g clip-path="url(#a)" transform="matrix(19.8694 0 0 -19.8694 -365.056 2662.498)"><path d="M66.368 134v-6.611c0-.63.179-4.174 4.372-5.598 4.195 1.424 4.375 4.968 4.375 5.598V134z" style="fill:url(#b);stroke:none"/></g><path d="m0 0 1.31 1.321L2.606.025h1.716v3.758h1.124v1.369H4.322v.406h1.124v1.259H4.283v1.612H.667V7.183h2.206V1.766L1.304 3.319l-2.311-2.31Z" style="fill:#fff;fill-opacity:1;fill-rule:nonzero;stroke:none" transform="matrix(19.8694 0 0 -19.8694 999.103 192.757)"/><path d="M0 0h-2.661v-8.007c0-2.054-.347-3.097-2.249-3.097-1.834 0-2.193 1.136-2.193 3.097V0h-2.755v-8.139c0-2.306.599-4.44 4.948-4.44 4.399 0 5.006 2.134 5.006 4.44V0Z" style="fill:#143f91;fill-opacity:1;fill-rule:nonzero;stroke:none" transform="matrix(19.8694 0 0 -19.8694 664.689 50.06)"/><path d="M0 0h2.756v12.385H0V7.256h-4.5v5.129h-2.757V0H-4.5v5.55H0Z" style="fill:#0091d1;fill-opacity:1;fill-rule:nonzero;stroke:none" transform="matrix(19.8694 0 0 -19.8694 848.286 296.14)"/><path d="M0 0v-8.313L-4.828 0h-2.953v-12.385h2.565l-.001 8.756 5.083-8.756h2.698V0h-.096Z" style="fill:#143f91;fill-opacity:1;fill-rule:nonzero;stroke:none" transform="matrix(19.8694 0 0 -19.8694 379.823 50.06)"/><path d="M0 0c-1.581.687-2.947 1.281-2.947 2.285 0 .698.77 1.176 1.915 1.168C.803 3.44 2.604 2.799 3.16 2.57l.154-.064v2.146l-.051.009c-.528.082-2.268.366-3.907.366-3.204 0-5.118-1.211-5.118-3.238 0-2.141 2.131-3.113 4.011-3.972 1.555-.71 3.022-1.379 3.022-2.592 0-1.304-1.989-1.357-2.216-1.357-1.269 0-2.715.382-4.418 1.254l-.162.083v-2.383l.189-.044c.616-.144 2.249-.525 3.939-.525 3.729 0 5.699 1.286 5.699 3.715C4.302-1.869 2.017-.876 0 0" style="fill:#143f91;fill-opacity:1;fill-rule:nonzero;stroke:none" transform="matrix(19.8694 0 0 -19.8694 114.487 146.072)"/></svg>