<svg xmlns="http://www.w3.org/2000/svg" xmlns:xlink="http://www.w3.org/1999/xlink" width="453.11102pt" height="75pt" viewBox="0 0 453.11103 75.000002"><symbol id="a" transform="translate(-419.776 -280.115)"><path d="M-2147483500-2147483500Z"/></symbol><use xlink:href="#a" width="100%" height="100%" transform="matrix(16 0 0 -16 34359744000 -34359741000)"/><path fill="#fabf00" d="m29.852 23.768 6.353 4.634-15.63 19.776L38.676 70.1 32.414 75l-21.38-26.377zM8.124 73.748H0V4.875l8.124-1.786zM61.121 67.96c1.115 0 2.268-.144 3.467-.445a29.02 29.02 0 0 0 3.61-1.153 19.893 19.893 0 0 0 3.383-1.741 19.783 19.783 0 0 0 2.82-2.186V51.033h-8.45c-4.272 0-7.4.738-9.36 2.223-1.959 1.484-2.946 3.836-2.946 7.046 0 5.102 2.487 7.657 7.476 7.657m-15.246-7.302c0-4.93 1.628-8.69 4.898-11.275 3.271-2.585 8.02-3.881 14.26-3.881H74.4v-3.12c0-7.537-3.3-11.312-9.895-11.312-2.118 0-4.334.301-6.662.889-2.33.603-4.462 1.341-6.406 2.23l-2.39-5.787a32.607 32.607 0 0 1 7.823-3.166c2.789-.738 5.517-1.115 8.162-1.115 11.426 0 17.138 6.15 17.138 18.442v31.185h-6.006l-.973-5.343c-2.411 1.96-4.989 3.474-7.724 4.544-2.736 1.07-5.344 1.606-7.823 1.606-4.288 0-7.657-1.236-10.106-3.693-2.442-2.472-3.663-5.871-3.663-10.204M126.467 23.768l6.36 4.634-15.622 19.776L135.3 70.1 129.037 75l-21.373-26.377zm-21.72 49.98h-8.124V4.875l8.124-1.786zM157.746 67.96c1.108 0 2.268-.144 3.467-.445a29.02 29.02 0 0 0 3.61-1.153 20.178 20.178 0 0 0 3.383-1.741c1.048-.686 1.99-1.41 2.812-2.186V51.033h-8.441c-4.28 0-7.401.738-9.36 2.223-1.967 1.484-2.947 3.836-2.947 7.046 0 5.102 2.487 7.657 7.476 7.657M142.5 60.657c0-4.93 1.628-8.69 4.898-11.275 3.271-2.585 8.012-3.881 14.26-3.881h9.36v-3.12c0-7.537-3.294-11.312-9.888-11.312-2.126 0-4.341.301-6.67.889-2.329.603-4.462 1.341-6.398 2.23l-2.39-5.787a32.677 32.677 0 0 1 7.816-3.166c2.796-.738 5.516-1.115 8.17-1.115 11.417 0 17.137 6.15 17.137 18.442v31.185h-6.006l-.98-5.343c-2.412 1.96-4.982 3.474-7.725 4.544-2.736 1.07-5.343 1.606-7.815 1.606-4.296 0-7.665-1.236-10.107-3.693-2.449-2.472-3.662-5.871-3.662-10.204M211.475 30.803c-4.235 0-7.491 1.597-9.752 4.808-2.276 3.21-3.406 7.906-3.406 14.085 0 6.12 1.13 10.732 3.406 13.852 2.261 3.12 5.517 4.68 9.752 4.68 4.296 0 7.582-1.56 9.85-4.68 2.261-3.12 3.4-7.732 3.4-13.852 0-6.18-1.139-10.875-3.4-14.085-2.268-3.21-5.554-4.808-9.85-4.808m0-6.595c6.715 0 11.983 2.2 15.804 6.595 3.829 4.393 5.743 10.694 5.743 18.893 0 8.072-1.9 14.282-5.698 18.615-3.79 4.341-9.081 6.512-15.849 6.512-6.715 0-11.983-2.17-15.804-6.512-3.828-4.333-5.742-10.543-5.742-18.615 0-8.2 1.921-14.5 5.78-18.893 3.859-4.394 9.112-6.595 15.766-6.595"/><path fill="#404040" d="M260.465 34.583v30.801c1.937.28 3.225.28 4.431.28 7.74 0 13.272-4.892 13.272-17.342 0-9.406-2.306-14.847-11.064-14.847-2.765 0-5.162.648-6.64 1.108m-12.359 37.531V4.792l12.36-2.209v24.072c2.954-1.847 6.828-3.135 11.07-3.135 13.092 0 19.18 8.938 19.18 24.53 0 16.875-9.224 26.928-24.53 26.928-7.107 0-14.666-1.387-18.08-2.864M312.016 36.888v36.703h-12.36V24.988h8.856l1.936 5.351c4.145-4.333 9.964-6.82 15.216-6.82 1.568 0 2.955.09 4.153.46l-1.289 11.99c-1.944-.467-3.971-.83-7.107-.83-3.316 0-6.64.74-9.405 1.75M361.722 61.42v-9.497h-6.64c-6.64 0-10.144 2.668-10.144 7.56 0 3.504 2.027 5.81 6.09 5.81 4.242 0 8.478-1.937 10.694-3.874m-7.748-17.431h7.748V42.33c0-5.351-1.658-8.396-8.946-8.396-4.522 0-8.667.927-13.098 3.226l-3.407-8.479c4.703-3.225 11.621-5.17 17.982-5.17 12.45 0 19 6.09 19 18.728v31.352h-8.668l-1.386-4.153c-4.982 3.881-10.325 5.449-14.666 5.449-9.496 0-14.749-5.63-14.749-15.307 0-10.242 7.009-15.592 20.19-15.592M397.966 73.593h-12.36V24.998h12.36zM382.75 9.127 391.786 0l9.036 9.127-9.036 9.043zM410.689 24.991h8.757l1.846 4.884c4.341-3.874 10.333-6.36 15.495-6.36 10.883 0 16.324 6.737 16.324 18.908v31.163h-12.36V42.054c0-5.442-2.027-7.748-8.576-7.748-2.578 0-6.27.739-9.127 1.847v37.433h-12.36z"/></svg>