<svg xmlns="http://www.w3.org/2000/svg" xml:space="preserve" width="1000px" height="243px" x="0px" y="0px" viewBox="0 0 1000 243"><linearGradient id="a" x1="59.0757" x2="482.4329" y1="101.5674" y2="101.5674" gradientTransform="matrix(.9988 -.0077 .0132 1 .901 6.594)" gradientUnits="userSpaceOnUse"><stop offset="0" style="stop-color:#0079b0"/><stop offset="1" style="stop-color:#61cae6"/></linearGradient><path fill="url(#a)" d="M483.994 96.681s-177.739-25.968-415.37 7.436l-5.911 22.333c81.529-21.35 253.601-41.888 421.281-29.769z"/><linearGradient id="b" x1="-2.8843" x2="482.4332" y1="99.3916" y2="99.3916" gradientTransform="matrix(.9988 -.0077 .0132 1 .901 6.594)" gradientUnits="userSpaceOnUse"><stop offset="0.0061" style="stop-color:#8bc53f"/><stop offset="0.7178" style="stop-color:#fff100"/><stop offset="0.9944" style="stop-color:#ffc731"/></linearGradient><path fill="url(#b)" d="M483.994 96.681S280.541 62.858 7.601 103.407L1 126.449c93.515-22.147 291.208-47.202 482.994-29.768z"/><linearGradient id="c" x1="19.6436" x2="493.8511" y1="67.042" y2="67.042" gradientUnits="userSpaceOnUse"><stop offset="0" style="stop-color:#f16f68"/><stop offset="0.2363" style="stop-color:#f2755c"/><stop offset="0.6667" style="stop-color:#f4843b"/><stop offset="1" style="stop-color:#f6921d"/></linearGradient><path fill="url(#c)" d="M84.069 67.228c1.585-5.947 3.812-11.032 11.816-11.032 8.026 0 7.524 5.085 5.938 11.032-1.834 6.797-4.138 11.595-11.982 11.595-7.843-.001-7.611-4.799-5.772-11.595zm11.783-.337c1.204-4.53 1.585-6.814-.983-6.814-2.597 0-3.414 2.284-4.618 6.814-1.795 6.617-1.613 8.054.624 8.054 2.248-.001 3.182-1.437 4.977-8.054zm192.256-9.173c0-.202-.061-.39-.166-.553-.265-.34-.779-.538-1.365-.538h-3.922l-.657 2.529h-.083c-.32-2.013-1.944-2.961-4.104-2.961-6.325 0-8.054 6.065-9.313 10.86-1.304 4.911-3.292 11.043 3.386 11.043a6.8 6.8 0 0 0 5.314-2.55h.088l-1.132 4.174c-.552 2.192-1.668 3.623-3.188 3.623-.928 0-1.574-.298-1.806-.867-.254-.519-.177-1.287.083-2.204H265.3c-1.281 5.32 2.276 6.479 6.795 6.479 8.357 0 9.854-5.949 10.286-7.443l5.701-21.353a.936.936 0 0 0 .026-.239zm-8.645 9.733c-1.254 4.609-2.149 6.896-4.353 6.896-2.927 0-1.524-4.154-.978-6.176 1.79-6.635 2.607-8.226 4.889-8.226 2.249.001 1.746 2.714.442 7.506zM36.712 56.195c-2.193 0-3.872.639-5.612 2.503h-.094L33.718 48.6c.022-.089.033-.166.033-.249a.938.938 0 0 0-.182-.541c-.26-.337-.768-.536-1.359-.536h-6.06c-.022.11-.182.621-.209.718.696.586 1.066 1.442 1.061 2.47-.017.34-.066.701-.166 1.071l-6.402 24.016-.79 2.837h3.204c1.254 0 2.746-.784 3.027-1.636l.21-.768h.088c.53 2.116 2.033 2.84 4.364 2.84 6.292 0 7.933-6.999 9.125-11.457 1.199-4.408 3.188-11.17-2.95-11.17zm-2.944 11.123c-1.48 5.466-2.508 7.742-4.701 7.742-2.066 0-1.817-2.276-.348-7.742 1.155-4.361 1.928-7.372 4.425-7.372 2.624 0 1.768 3.011.624 7.372zm21.439-11.123c-8.021 0-10.241 5.085-11.815 11.032-1.862 6.797-2.077 11.595 5.767 11.595 2.85 0 5.209-.782 6.971-2.121 1.342-.973 2.37-2.251 3.11-3.787.094-.19.171-.381.177-.533.017-.077.017-.149.017-.231a.747.747 0 0 0-.166-.536c-.259-.364-.768-.55-1.364-.55H53.82c-.492 1.795-1.47 3.881-3.629 3.881-2.663 0-1.712-3.881-1.016-6.469h10.843c.298 0 .862-.251 1.005-.69 1.884-6.646 2.105-11.591-5.816-11.591zm.447 8.878h-5.557c.497-1.862 1.326-5.127 4.121-5.127 2.894 0 1.989 3.011 1.436 5.127zm126.383-8.878c-8.015 0-10.236 5.085-11.827 11.032-1.856 6.797-2.066 11.595 5.778 11.595 2.839 0 5.215-.782 6.96-2.121 1.342-.973 2.375-2.251 3.132-3.787.072-.19.144-.381.155-.533a.644.644 0 0 0 .033-.231.844.844 0 0 0-.177-.536c-.26-.364-.762-.55-1.354-.55h-4.093c-.497 1.795-1.469 3.881-3.624 3.881-2.679 0-1.729-3.881-1.017-6.469h10.844c.299 0 .873-.251.994-.69 1.891-6.646 2.112-11.591-5.804-11.591zm.453 8.878h-5.568c.497-1.862 1.315-5.127 4.126-5.127 2.895 0 1.989 3.011 1.442 5.127zm57.063 11.39 4.778-17.74.204-.765a.72.72 0 0 0 .033-.24.871.871 0 0 0-.166-.553c-.282-.34-.795-.538-1.381-.538h-6.06c-.017.104-.171.624-.199.729.679.569 1.072 1.437 1.055 2.456 0 .356-.055.731-.166 1.118l.017-.014-4.712 17.47h3.441c1.432 0 2.847-.881 3.156-1.923zm6.96-26.238.32-.854.199-.76a1.1 1.1 0 0 0 .039-.26.965.965 0 0 0-.177-.547c-.243-.337-.756-.53-1.348-.53h-6.065c-.022.11-.199.621-.227.718.718.586.978 1.553.95 2.58 0 .359-.05.734-.138 1.121l.011-.024-.171.508h3.464c1.408 0 2.85-.895 3.143-1.952zm-83.6 26.238 7.264-27.092.199-.76a.848.848 0 0 0 .033-.26c.011-.19-.061-.378-.166-.547-.276-.337-.768-.53-1.365-.53h-6.06c-.033.11-.193.621-.215.718.702.586 1.066 1.442 1.055 2.47 0 .354-.05.727-.16 1.116l.011-.017-7.181 26.824h3.436c1.425.001 2.862-.88 3.149-1.922zm40.17-20.268c-2.336 0-4.38.387-6.082 1.415-1.64.991-2.944 2.673-3.646 5.303h5.944c.486-1.716 1.104-3.314 3.204-3.314 2.193 0 2.083 1.331 1.58 3.182l-.431 1.685c-5.64-.088-11.269.227-13.219 7.413-1.022 3.79-.298 6.944 3.933 6.944 2.613 0 4.662-1.072 6.568-3.314h.078l-.508 2.878h2.828c1.414 0 2.845-.881 3.138-1.923a22.56 22.56 0 0 1 .458-2.115l2.944-10.871c1.028-3.968.929-7.283-6.789-7.283zm-5.33 18.866c-1.972 0-1.696-1.873-1.304-3.434 1.072-3.881 3.209-3.626 6.281-3.754-.652 2.362-1.397 7.188-4.977 7.188zM69.188 84.729l.646-1.168.011-.006 14.059-25.642a.611.611 0 0 0 .088-.196c.066-.213.066-.39-.011-.553-.16-.34-.607-.538-1.199-.538H77.17c-.044.088-.276.538-.309.618.475.497.652 1.243.447 2.121a3.93 3.93 0 0 1-.342.962l-5.568 11.595h-.088l.906-13.974c0-.085 0-.157-.017-.231-.027-.213-.132-.39-.287-.553-.32-.34-.878-.538-1.469-.538H65.2c0 .088-.017.538-.017.618.724.497.939 1.221 1.016 2.094.039.323.066.657.066.989l.017 18.229-4.497 8.06h3.773c1.398 0 3.022-.843 3.63-1.887zm51.19-28.534c-1.121 0-2.126.166-3.143.603-.845.367-1.746.983-2.591 1.911l.006-.033.204-.773a.953.953 0 0 0 .039-.251.917.917 0 0 0-.188-.544c-.254-.326-.757-.539-1.354-.539h-6.06c-.022.11-.193.639-.216.727.691.586 1.066 1.439 1.055 2.458a4.232 4.232 0 0 1-.155 1.122l.017-.012-4.855 17.522h3.453c1.419 0 2.845-.881 3.16-1.923l3.994-14.533c.52-1.185 1.298-1.983 2.712-1.983 1.944 0 1.9 1.508 1.359 3.441l-4.027 14.998h3.447c1.42 0 2.856-.881 3.149-1.923l4.17-15.533c.807-3.016-1.297-4.735-4.176-4.735zm141.27 0c-1.116 0-2.132.166-3.137.603-.851.367-1.746.983-2.607 1.911l.028-.033.188-.773a.648.648 0 0 0 .039-.251.873.873 0 0 0-.177-.544c-.254-.326-.746-.539-1.353-.539h-6.06c-.028.11-.177.639-.21.727.691.586 1.066 1.439 1.044 2.458 0 .359-.044.737-.149 1.122l.005-.012-4.822 17.522h3.43c1.42 0 2.856-.881 3.149-1.923l4.01-14.533c.514-1.185 1.293-1.983 2.712-1.983 1.928 0 1.895 1.508 1.359 3.441l-4.033 14.998h3.447c1.414 0 2.856-.881 3.154-1.923l4.16-15.533c.818-3.016-1.282-4.735-4.177-4.735zm-112.467-8.39c-.26-.337-.768-.53-1.354-.53h-6.104c-.028.11-.188.621-.221.718.702.586 1.077 1.442 1.066 2.47a5.168 5.168 0 0 1-.16 1.116l.017-.017-1.928 7.137h-.044c-.768-1.864-2.104-2.503-4.303-2.503-6.115 0-7.75 6.762-8.938 11.17-1.199 4.458-3.276 11.457 3.01 11.457 2.326 0 4.193-.724 5.9-2.84h.039l-.597 2.403h3.16c1.425 0 2.845-.881 3.143-1.923l7.259-27.092.204-.76c.022-.088.033-.177.033-.26a.892.892 0 0 0-.182-.546zm-15.512 27.256c-2.215 0-1.945-2.276-.464-7.742 1.155-4.361 1.922-7.372 4.552-7.372 2.497 0 1.624 3.011.486 7.372-1.475 5.465-2.508 7.742-4.574 7.742zm101.702-27.256c-.243-.337-.751-.53-1.342-.53h-6.098c-.039.11-.193.621-.221.718.696.586 1.066 1.442 1.049 2.47 0 .354-.044.727-.149 1.116l.005-.017-1.906 7.137h-.061c-.762-1.864-2.11-2.503-4.298-2.503-6.137 0-7.761 6.762-8.949 11.17-1.204 4.458-3.276 11.457 3.016 11.457 2.326 0 4.182-.724 5.905-2.84h.028l-.602 2.403h3.165c1.42 0 2.845-.881 3.154-1.923l7.248-27.092.205-.76c.022-.088.044-.177.044-.26a.905.905 0 0 0-.193-.546zm-15.506 27.256c-2.204 0-1.938-2.276-.469-7.742 1.149-4.361 1.922-7.372 4.552-7.372 2.491 0 1.646 3.011.486 7.372-1.47 5.465-2.497 7.742-4.569 7.742zm178.248-7.782c1.596-5.952 3.806-11.042 11.827-11.042s7.518 5.09 5.938 11.042c-1.851 6.819-4.137 11.593-11.992 11.593-7.844 0-7.618-4.773-5.773-11.593zm11.794-.344c1.188-4.527 1.591-6.816-1.011-6.816-2.585 0-3.402 2.289-4.596 6.816-1.795 6.65-1.613 8.043.63 8.043s3.176-1.393 4.977-8.043zm21.742.344c1.591-5.952 3.806-11.042 11.821-11.042s7.518 5.09 5.938 11.042c-1.856 6.819-4.154 11.593-11.998 11.593-7.832 0-7.611-4.773-5.761-11.593zm11.777-.344c1.215-4.527 1.602-6.816-1-6.816-2.58 0-3.397 2.289-4.602 6.816-1.784 6.65-1.613 8.043.63 8.043 2.238 0 3.182-1.393 4.972-8.043zM323.738 56.237c-8.01 0-10.236 5.09-11.816 11.042-1.856 6.819-2.083 11.593 5.772 11.593 2.839 0 5.209-.779 6.966-2.105 1.337-.961 2.375-2.281 3.116-3.789.072-.221.154-.387.171-.52.017-.083.028-.19.028-.265a.97.97 0 0 0-.171-.547c-.265-.326-.768-.533-1.359-.533h-4.099c-.48 1.831-1.469 3.864-3.618 3.864-2.679 0-1.724-3.864-1.022-6.441h10.849c.282 0 .867-.254.989-.707 1.894-6.629 2.11-11.592-5.806-11.592zm.464 8.885h-5.574c.503-1.845 1.332-5.129 4.116-5.129 2.9 0 2 3.017 1.458 5.129zm100.106 11.38 7.248-27.073.199-.784a.683.683 0 0 0 .033-.237.748.748 0 0 0-.177-.542c-.265-.348-.762-.541-1.354-.541h-6.054a28.9 28.9 0 0 1-.227.724c.702.574 1.083 1.447 1.061 2.47 0 .348-.05.724-.149 1.115v-.021l-7.181 26.829h3.447c1.419-.002 2.855-.879 3.154-1.94zm54.698 8.297.636-1.19h.011l14.075-25.631c.027-.083.055-.152.083-.219.061-.198.055-.387-.028-.535-.166-.343-.597-.55-1.188-.55h-5.613c-.044.097-.265.55-.309.621.486.503.657 1.248.453 2.133a5.652 5.652 0 0 1-.343.961l-5.579 11.595h-.077l.895-13.981c.005-.08-.011-.166-.011-.243a1.044 1.044 0 0 0-.293-.535c-.332-.343-.867-.55-1.458-.55h-5.259c.011.097-.005.55-.005.621.724.503.939 1.221 1.022 2.1.028.314.055.657.055.994l.017 18.237-4.507 8.046h3.789c1.391-.001 3.016-.858 3.634-1.874zm-87.688-28.562c-1.121 0-2.115.183-3.121.616-.861.37-1.762.982-2.624 1.916l.022-.044.204-.768c.028-.083.033-.171.044-.243a.897.897 0 0 0-.188-.553c-.254-.34-.773-.535-1.364-.535h-6.054a7.697 7.697 0 0 1-.221.715c.69.583 1.083 1.444 1.066 2.467 0 .359-.055.734-.149 1.121v-.011l-4.844 17.521h3.447c1.409 0 2.851-.878 3.148-1.938l4.005-14.528c.531-1.177 1.304-1.98 2.707-1.98 1.944 0 1.911 1.503 1.364 3.45l-4.016 14.997h3.452c1.403 0 2.839-.878 3.127-1.938l4.17-15.514c.814-3.019-1.28-4.751-4.175-4.751zm-79.445 2.869c.227-.837.475-1.85.63-2.433h-3.138s1.397-5.124 1.475-5.378c.061-.26-.232-.607-.52-.497-.287.121-6.104 2.425-6.104 2.425l-.933 3.45h-2.442s-.712 2.671-.812 3.035c-.094.381.193.718.48.718h1.795l-3.602 13.396c-.37 1.358-.602 4.833 4.646 4.833.265 0 .497-.008.735-.011 1.243-.094 2.602-.856 2.851-1.657l.613-2.281c-.309.071-.696.071-1.099.071-1.972 0-1.663-1.074-1.21-2.721l3.138-11.631h1.061c1.01-.031 2.193-.65 2.436-1.319zm38.038 12.745c.017-.133.044-.276.044-.348a.933.933 0 0 0-.177-.542c-.254-.337-.757-.541-1.348-.541h-4.11c-.751 2.84-2.154 4.558-4.043 4.558-2.243 0-2.425-1.393-.629-8.043 1.204-4.527 2.021-6.816 4.607-6.816 1.889 0 2.436 1.082 1.574 4.319h5.253c.271 0 .845-.243.978-.674 1.149-5.221-1.387-7.526-6.767-7.526-8.021 0-10.253 5.09-11.821 11.042-1.851 6.819-2.088 11.593 5.772 11.593 5.071 0 8.684-2.011 10.54-6.657.055-.15.099-.266.127-.365zm19.864-15.614c-1.116 0-2.121.183-3.143.616-.884.384-1.828 1.03-2.701 2.019h-.072l2.541-9.443.188-.784a.593.593 0 0 0 .044-.237.836.836 0 0 0-.182-.542c-.26-.348-.768-.541-1.354-.541h-6.065c-.017.116-.199.627-.232.724.718.574 1.088 1.447 1.077 2.47a6.005 6.005 0 0 1-.154 1.115v-.021l-7.187 26.829h3.447c1.425 0 2.839-.878 3.154-1.938l3.502-13.059c.542-1.947 1.276-3.45 3.22-3.45 1.939 0 1.889 1.503 1.348 3.45L363.18 78.44h3.441c1.419 0 2.867-.878 3.154-1.938l4.17-15.514c.813-3.019-1.27-4.751-4.17-4.751zm102.967 1.528a.839.839 0 0 0-.166-.541c-.26-.343-.757-.55-1.359-.55H467.3l-.668 2.544h-.083c-.315-2.027-1.934-2.98-4.094-2.98-6.347 0-8.065 6.085-9.324 10.871-1.309 4.908-3.281 11.028 3.397 11.028a6.776 6.776 0 0 0 5.325-2.552h.078l-1.138 4.198c-.542 2.193-1.668 3.618-3.187 3.618-.945 0-1.569-.304-1.784-.864-.288-.522-.216-1.299.066-2.201h-5.949c-1.287 5.309 2.265 6.474 6.794 6.474 8.369 0 9.844-5.955 10.28-7.463l5.701-21.328c.017-.094.028-.177.028-.254zm-8.629 9.727c-1.243 4.607-2.16 6.892-4.353 6.892-2.928 0-1.547-4.124-1-6.168 1.79-6.629 2.607-8.223 4.894-8.223 2.255 0 1.752 2.727.459 7.499z"/><path fill="#00367C" d="M700.147 41.479c-.923-1.218-2.768-1.949-4.884-1.949l-30.586-.006c-.077.331-.553 1.884-.63 2.182 2.077 1.727 3.227 4.275 3.183 7.35-.012 1.069-.172 2.186-.459 3.356l-17.229 64.376h22.461c5.132 0 10.308-3.231 11.318-7.057l17.346-65.398c.083-.301.127-.616.127-.9.017-.716-.216-1.375-.647-1.954zM833.684 39.524 829.11 55.98h28.398l-16.323 60.808h22.461c5.126 0 10.318-3.231 11.329-7.057l14.246-53.751h27.217c2.486 0 5.176-2.05 5.812-4.488l3.182-11.968h-91.748z"/><linearGradient id="d" x1="-2912.019" x2="-2852.1624" y1="4845.6094" y2="4788.5264" gradientTransform="matrix(.7692 0 .0127 .7692 2987.393 -3688.312)" gradientUnits="userSpaceOnUse"><stop offset="0.0056" style="stop-color:#fcb811"/><stop offset="0.7" style="stop-color:#f4811f"/><stop offset="0.8988" style="stop-color:#f05221"/><stop offset="1" style="stop-color:#ee4022"/></linearGradient><path fill="url(#d)" d="M827.79 1.056c.53 2.955.828 5.794.861 8.513.255 14.986-6.303 26.409-13.976 34.641-.635.668-.281 1.151.52.754 22.052-11.156 37.806-26.446 45.313-43.907H827.79z"/><path fill="#00367C" d="M771.495 35.32c-13.429.149-27.515 1.768-40.396 4.447-.354 1.298-3.464 12.89-4.375 16.257 10.854-3.314 23.283-5.389 35.386-5.602v.012c7.685-.059 11.916.807 14.578 3.002.603.494 1.017 1.086 1.376 1.727 10.152-2.348 19.405-5.878 27.393-10.311v-.009c-2.938-2.961-5.634-4.599-8.17-5.596-6.397-2.777-14.17-4.045-25.792-3.927zM809.213 51.346c-.332-1.271-.873-2.231-.873-2.231-7.181 5.526-16.444 10.321-26.51 14.133-14.527 5.521-27.592 8.084-27.592 8.084s-11.688 2.409-20.014 4.558c-8.623 2.21-21.609 6.767-24.753 17.315-1.674 5.609-1.259 13.072 2.154 17.345 5.718 7.15 17.229 10.548 37.563 10.311 18.417-.204 39.148-5.046 39.353-5.115 5.314-1.314 8.242-4.469 9.54-9.277l10.838-41.383c.746-2.925 1.144-5.612 1.171-8.026.023-2.057-.347-3.98-.877-5.714zm-41.596 50.892c-.459 1.646-2.038 3.102-3.729 3.399-1.006.191-5.049 1.299-9.396 1.351-7.761.066-12.108-1.563-14.755-4.813-1.751-2.138-2.325-4.964-1.635-8.162v-.02c1.911-8.708 11.584-13.959 34.486-17.541l1.983-.331-6.954 26.117zM592.452 78.253l-1.663-1.058s36.088-26.999 47.821-35.511l.563-2.119h-29.271c-.68.456-38.447 29.037-38.447 29.037l6.419-24.203a3.61 3.61 0 0 0 .122-.89c0-.718-.232-1.375-.652-1.964-.939-1.21-2.751-1.938-4.883-1.938h-30.592c-.083.307-.553 1.878-.624 2.16 2.071 1.742 3.215 4.3 3.182 7.357a14.385 14.385 0 0 1-.459 3.354l-17.224 64.299h22.461c5.126 0 10.308-3.146 11.318-6.972l6.606-24.863 1.569 1.243c10.732 8.523 18.268 19.063 23.604 30.476h40.729c-10.147-15.113-24.709-28.379-40.579-38.408z"/><path fill="#6D6D66" d="M660.126 206.398h7.706v3.303h-5.115c2.157 1.486 3.724 3.84 3.724 6.606 0 4.635-3.925 8.441-8.723 8.441-4.801 0-8.679-3.807-8.679-8.441 0-2.767 1.605-5.12 3.641-6.606h-5.159v-3.303h7.91v-4.182h4.695v4.182zm2.26 9.745c0-2.68-2.231-5.154-4.668-5.154-2.438 0-4.673 2.475-4.673 5.154 0 2.656 2.234 5.087 4.673 5.087 2.436-.001 4.668-2.431 4.668-5.087zm12.848-2.602h4.656v3.469h-4.656v13.202h-4.322v-27.001h4.322v10.33zM701.799 218.385c.752-2.524 1.409-8.109 1.32-10.474h-16.091v-3.463h20.668c.08 3.762-.666 10.424-1.533 13.937h6.969v3.304h-13.238v6.032h8.09v12.815h-4.361v-9.457h-16.967v-3.358h8.631v-6.032h-13.368v-3.304h19.88z"/><g fill="#6D6D66"><path d="M728.093 236.487v-9.17h-4.359v12.601h20.804v-3.431zM743.698 213.541v-10.33h-4.319v27.001h4.319V217.01h4.657v-3.469z"/></g><path fill="#6D6D66" d="M807.746 239.929v-36.68h4.361v36.68h-4.361zM830.408 221.688H816.25v-3.193h32.84v3.193h-14.069v3.392h8.974v8.888h-18.121v2.801H844.7v3.188h-23.472v-8.938h18.157v-2.801h-18.157v-3.138h9.181v-3.392zM903.866 204.823h9.203V208h-5.035c1.278 1.166 2.024 2.646 2.024 4.348 0 4.132-4.011 7.396-8.56 7.396-4.591 0-8.51-3.265-8.51-7.396 0-1.702.74-3.182 1.937-4.348h-4.994v-3.177h9.244v-3.313h4.69v3.313zm1.955 7.525c0-2.441-1.947-4.304-4.339-4.304-2.389 0-4.306 1.862-4.306 4.304a4.307 4.307 0 0 0 4.306 4.297c2.392 0 4.339-1.945 4.339-4.297zm-4.313 14.069c5.101 0 9.559 3.386 9.559 7.756 0 4.363-4.458 7.771-9.559 7.771-5.162 0-9.565-3.408-9.565-7.771-.001-4.37 4.403-7.756 9.565-7.756zm-.072 12.534c2.892 0 5.441-2.077 5.441-4.778 0-2.597-2.273-4.724-5.309-4.724-2.906 0-5.441 2.127-5.441 4.724 0 2.651 2.408 4.778 5.309 4.778zm-15.707-14.075v-3.188h31.544v3.188h-31.544z"/><g fill="#6D6D66"><path d="M865.325 236.487v-9.17h-4.366v12.601h20.927v-3.431zM876.732 203.211h4.325v27.001h-4.325z"/></g><path fill="#6D6D66" d="M659.632 236.487v-9.17h-4.364v12.601h20.806v-3.431zM728.496 206.056v-2.027h-4.77v2.027c0 8.579-3.384 12.71-8.449 15.876l2.326 2.558c2.816-1.607 6.606-4.834 8.507-8.866 1.905 4.032 5.684 7.259 8.513 8.866l2.322-2.558c-5.068-3.166-8.449-7.297-8.449-15.876zM835.098 203.885v-.867h-4.858v.867c.005 7.049-10.179 10.191-10.179 10.191l2 2.768s6.839-2.32 10.606-7.209c3.772 4.878 10.605 7.209 10.605 7.209l2.003-2.768c.001 0-10.182-3.142-10.177-10.191zM864.544 209.166c.024-.315.041-.63.052-.956h6.342v-3.348H853.45v3.348h6.336c.011.326.027.641.049.956.108 9.086-8.012 12.97-8.012 12.97l2.599 2.69s4.756-2.414 7.77-7.828c3.014 5.414 7.77 7.828 7.77 7.828l2.607-2.69c-.002 0-8.128-3.884-8.025-12.97zM768.898 213.27c0-4.916-4.088-8.965-9.01-8.965s-9.009 4.049-9.009 8.965c0 4.928 4.087 8.977 9.009 8.977s9.01-4.05 9.01-8.977zm-13.785 0c0-2.972 2.136-5.408 4.775-5.408 2.641 0 4.778 2.437 4.778 5.408 0 2.983-2.138 5.414-4.778 5.414-2.639 0-4.775-2.431-4.775-5.414zM775.329 229.162h-11.794v-3.972h-4.364v14.728h20.521V225.19h-4.363v3.972zm0 7.452h-11.794v-4.221h11.794v4.221z"/><path fill="#6D6D66" d="M775.373 203.277v8.297h-8.54v3.525h8.54v8.301h4.319v-20.123zM786.15 206.53v3.437h12.266c-.663 10.655-5.54 17.284-13.58 22.438l2.452 2.485c8.777-4.419 15.815-13.876 15.815-26.643v-1.718H786.15z"/><g fill="#6D6D66"><path d="M932.931 228.544v-5.204c4.262-.204 8.023-.541 10.299-.873v-3.104c-3.59.419-12.086.961-17.13.961h-5.844v3.192l7.291-.044h.939v5.071h4.445zM932.887 236.487v-6.01h-4.357v9.441h21.682v-3.431z"/><path d="M949.37 203.249h-4.317v21.467h-7.419v3.132h7.419v3.435h4.317V215.12zM930.817 219.164c4.751 0 8.723-3.547 8.723-7.933 0-4.425-3.972-7.949-8.723-7.949-4.756 0-8.684 3.524-8.684 7.949.001 4.386 3.929 7.933 8.684 7.933zm0-12.684c2.441 0 4.524 2.149 4.524 4.707 0 2.568-2.083 4.712-4.524 4.712-2.411 0-4.529-2.144-4.529-4.712 0-2.557 2.118-4.707 4.529-4.707z"/></g><g fill="#6D6D66"><path d="m661.055 158.98-5.361-9.419-3.218 3.861v5.558h-2.89v-19.09h2.89v9.595l7.806-9.595h3.535l-6.192 7.484 6.839 11.606h-3.409zM674.864 152.164c0 1.48-.105 2.899-.939 3.733-.508.509-1.204.796-2.011.796-.801 0-1.472-.287-1.982-.796-.832-.834-.937-2.253-.937-3.733 0-1.47.104-2.895.937-3.724.511-.508 1.182-.779 1.982-.779.807 0 1.503.271 2.011.779.834.83.939 2.254.939 3.724zm2.738 0c0-2.276-.323-3.994-1.61-5.325-.879-.917-2.229-1.613-4.077-1.613-1.851 0-3.159.696-4.049 1.613-1.287 1.331-1.607 3.049-1.607 5.325 0 2.309.32 4.026 1.607 5.363.89.911 2.198 1.618 4.049 1.618 1.848 0 3.198-.707 4.077-1.618 1.286-1.337 1.61-3.054 1.61-5.363zM688.784 148.578c-.618-.618-1.104-.917-2.038-.917-1.475 0-2.712 1.183-2.712 3.066v8.253H681.3v-13.6h2.685v1.476c.696-.962 2.088-1.63 3.618-1.63 1.314 0 2.309.348 3.242 1.287l-2.061 2.065zM700.332 151.064h-6.109c.025-.829.075-1.232.346-1.84.425-1.021 1.42-1.724 2.712-1.724 1.282 0 2.248.702 2.674 1.724.27.608.353 1.011.377 1.84zm2.71 1.906v-1.204c0-3.866-2.121-6.54-5.762-6.54-3.494 0-5.767 2.541-5.767 6.938 0 5.181 2.709 6.981 6.109 6.981 2.387 0 3.704-.729 5.099-2.121l-1.751-1.641c-.961.967-1.763 1.397-3.293 1.397-2.223 0-3.455-1.48-3.455-3.812h8.82zM713.93 154.069c0 .967-.188 1.607-.591 2.011-.724.701-1.503.779-2.547.779-1.724 0-2.491-.696-2.491-1.934 0-1.227.828-1.956 2.436-1.956h3.193v1.1zm2.728 4.911v-9.093c0-3.088-1.875-4.662-5.599-4.662-2.253 0-3.599.453-4.88 1.955l1.798 1.685c.754-.966 1.472-1.309 2.972-1.309 2.119 0 2.98.834 2.98 2.552v.956h-3.596c-3.113 0-4.695 1.641-4.695 3.916 0 1.155.378 2.204 1.074 2.923.834.834 1.958 1.242 3.646 1.242 1.693 0 2.632-.408 3.621-1.397v1.232h2.679zM727.632 158.98v-19.09h2.892v19.091h-2.892zM743.478 158.98v-8.286c0-2.116-1.21-3.033-2.734-3.033-1.53 0-2.817.939-2.817 3.033v8.286h-2.737v-13.6h2.685v1.376c.937-1.022 2.248-1.53 3.621-1.53 1.393 0 2.547.453 3.348 1.231 1.05 1.022 1.37 2.304 1.37 3.828v8.695h-2.736zM754.821 159.146c-2.227 0-4.107-.386-5.715-1.961l1.801-1.801c1.094 1.127 2.574 1.42 3.914 1.42 1.659 0 2.975-.586 2.975-1.878 0-.912-.511-1.503-1.829-1.607l-2.165-.183c-2.552-.216-4.027-1.37-4.027-3.751 0-2.662 2.282-4.159 5.127-4.159 2.035 0 3.78.425 5.043 1.53l-1.718 1.74c-.861-.729-2.066-.995-3.354-.995-1.635 0-2.466.724-2.466 1.74 0 .813.428 1.431 1.875 1.558l2.149.188c2.543.215 4.046 1.425 4.046 3.833.001 2.846-2.414 4.326-5.656 4.326zM767.581 158.98c-2.549 0-3.729-1.829-3.729-3.778v-7.485H762.3v-2.094h1.552v-4.121h2.743v4.121h2.623v2.094h-2.623v7.347c0 .994.475 1.58 1.496 1.58h1.127v2.337h-1.637zM772.622 142.707v-2.9h2.895v2.9h-2.895zm.083 16.273v-13.6h2.734v13.601h-2.734zM783.833 158.98c-2.55 0-3.731-1.829-3.731-3.778v-7.485h-1.555v-2.094h1.555v-4.121h2.737v4.121h2.632v2.094h-2.632v7.347c0 .994.483 1.58 1.499 1.58h1.133v2.337h-1.638zM797.159 158.98v-1.37c-.938 1.021-2.257 1.535-3.621 1.535-1.395 0-2.546-.464-3.35-1.242-1.05-1.017-1.37-2.304-1.37-3.834v-8.689h2.734v8.292c0 2.115 1.207 3.021 2.734 3.021 1.533 0 2.817-.928 2.817-3.021v-8.292h2.734v13.601h-2.678zM808.232 158.98c-2.55 0-3.731-1.829-3.731-3.778v-7.485h-1.553v-2.094h1.553v-4.121h2.739v4.121h2.624v2.094h-2.624v7.347c0 .994.481 1.58 1.5 1.58h1.124v2.337h-1.632zM821.341 151.064h-6.115c.024-.829.08-1.232.351-1.84.426-1.021 1.42-1.724 2.707-1.724s2.251.702 2.679 1.724c.269.608.352 1.011.378 1.84zm2.709 1.906v-1.204c0-3.866-2.121-6.54-5.767-6.54-3.482 0-5.765 2.541-5.765 6.938 0 5.181 2.707 6.981 6.112 6.981 2.387 0 3.698-.729 5.094-2.121l-1.743-1.641c-.964.967-1.765 1.397-3.298 1.397-2.227 0-3.458-1.48-3.458-3.812h8.825zM652.315 174.044v11.264h-2.729v-11.264h-1.561v-2.094h1.561v-2.088c0-1.967 1.177-3.784 3.718-3.784h1.718v2.331h-1.206c-1.014 0-1.5.586-1.5 1.591v1.95h2.706v2.094h-2.707zM665.451 178.491c0 1.475-.104 2.899-.939 3.729-.508.514-1.204.807-2.01.807-.802 0-1.479-.293-1.983-.807-.831-.829-.939-2.254-.939-3.729 0-1.476.108-2.9.939-3.724.505-.514 1.182-.79 1.983-.79.806 0 1.502.276 2.01.79.835.824.939 2.249.939 3.724zm2.735 0c0-2.276-.32-3.994-1.607-5.331-.884-.917-2.227-1.618-4.076-1.618-1.849 0-3.166.701-4.05 1.618-1.281 1.337-1.607 3.055-1.607 5.331 0 2.309.326 4.026 1.607 5.369.884.905 2.201 1.612 4.05 1.612 1.85 0 3.192-.707 4.076-1.612 1.286-1.342 1.607-3.06 1.607-5.369zM678.485 174.906c-.616-.625-1.103-.929-2.036-.929-1.478 0-2.706 1.193-2.706 3.071v8.259h-2.734v-13.605h2.679v1.48c.696-.962 2.091-1.641 3.618-1.641 1.314 0 2.31.358 3.248 1.292l-2.069 2.073zM696.938 178.999h-5.869l2.975-8.468 2.894 8.468zm5.204 6.309-6.999-19.097h-2.328l-7.002 19.097h3.082l1.315-3.834h7.537l1.313 3.834h3.082zM711.395 178.491c0 2.419-.343 4.535-2.817 4.535-2.461 0-2.84-2.116-2.84-4.535 0-2.409.379-4.514 2.84-4.514 2.474.001 2.817 2.105 2.817 4.514zm2.739 6.817v-19.097h-2.739v6.866c-.986-1.177-2.116-1.535-3.563-1.535-1.367 0-2.546.464-3.298 1.21-1.37 1.369-1.53 3.679-1.53 5.739 0 2.071.16 4.396 1.53 5.761.752.752 1.956 1.221 3.326 1.221 1.469 0 2.573-.381 3.59-1.612v1.447h2.684zM722.851 185.308h-2.223l-4.991-13.605h2.9l3.215 9.584 3.189-9.584h2.903l-4.993 13.605zM736.341 180.396c0 .967-.186 1.619-.589 2.006-.724.701-1.502.778-2.549.778-1.719 0-2.497-.69-2.497-1.928 0-1.231.834-1.95 2.441-1.95h3.193v1.094zm2.739 4.912v-9.093c0-3.088-1.878-4.673-5.606-4.673-2.251 0-3.591.464-4.884 1.961l1.799 1.69c.754-.961 1.478-1.304 2.979-1.304 2.116 0 2.973.817 2.973 2.541v.967h-3.594c-3.107 0-4.689 1.629-4.689 3.911 0 1.154.378 2.198 1.071 2.922.831.834 1.958 1.242 3.648 1.242 1.688 0 2.63-.408 3.618-1.402v1.237h2.685zM750.697 185.308v-8.292c0-2.109-1.21-3.038-2.74-3.038-1.529 0-2.816.956-2.816 3.038v8.292h-2.734v-13.605h2.685v1.375c.938-1.021 2.248-1.535 3.618-1.535 1.387 0 2.541.464 3.353 1.242 1.044 1.022 1.364 2.304 1.364 3.84v8.684h-2.73zM762.115 185.473c-3.055 0-6.057-1.883-6.057-6.981 0-5.094 3.002-6.949 6.057-6.949 1.878 0 3.193.541 4.48 1.911l-1.873 1.822c-.861-.938-1.53-1.298-2.607-1.298-1.044 0-1.928.442-2.514 1.216-.594.751-.812 1.718-.812 3.298 0 1.574.218 2.579.812 3.331.586.773 1.47 1.204 2.514 1.204 1.077 0 1.746-.349 2.607-1.287l1.873 1.801c-1.286 1.357-2.602 1.932-4.48 1.932zM776.55 177.397h-6.115c.027-.835.077-1.237.343-1.856.431-1.017 1.425-1.707 2.712-1.707s2.254.69 2.682 1.707c.262.619.345 1.022.378 1.856zm2.706 1.906v-1.215c0-3.855-2.121-6.546-5.767-6.546-3.485 0-5.765 2.552-5.765 6.949 0 5.176 2.71 6.981 6.112 6.981 2.384 0 3.701-.729 5.094-2.126l-1.746-1.641c-.964.972-1.765 1.397-3.295 1.397-2.224 0-3.455-1.464-3.455-3.801h8.822zM798.568 185.308v-8.292c0-2.109-1.21-3.038-2.74-3.038-1.475 0-2.822.956-2.822 2.906v8.424h-2.729v-8.292c0-2.109-1.21-3.038-2.734-3.038-1.527 0-2.819.956-2.819 3.038v8.292h-2.729v-13.605h2.683v1.375c.908-.994 2.253-1.535 3.617-1.535 1.69 0 3.003.679 3.861 1.994 1.1-1.343 2.464-1.994 4.265-1.994 1.396 0 2.627.464 3.431 1.242 1.05 1.022 1.447 2.304 1.447 3.84v8.684h-2.731zM812.748 177.397h-6.106c.024-.835.08-1.237.345-1.856.432-1.017 1.42-1.707 2.71-1.707s2.251.69 2.682 1.707c.269.619.347 1.022.369 1.856zm2.712 1.906v-1.215c0-3.855-2.115-6.546-5.764-6.546-3.485 0-5.762 2.552-5.762 6.949 0 5.176 2.707 6.981 6.112 6.981 2.387 0 3.701-.729 5.093-2.126l-1.745-1.641c-.961.972-1.768 1.397-3.293 1.397-2.231 0-3.46-1.464-3.46-3.801h8.819zM826.48 185.308v-8.292c0-2.109-1.198-3.038-2.729-3.038s-2.817.956-2.817 3.038v8.292H818.2v-13.605h2.682v1.375c.937-1.021 2.251-1.535 3.621-1.535 1.393 0 2.547.464 3.348 1.242 1.044 1.022 1.37 2.304 1.37 3.84v8.684h-2.741zM836.595 185.308c-2.544 0-3.726-1.829-3.726-3.79v-7.474h-1.55v-2.094h1.55v-4.132h2.737v4.132h2.629v2.094h-2.629v7.347c0 .994.48 1.58 1.502 1.58h1.127v2.337h-1.64zM854.675 178.491c0 1.475-.107 2.899-.938 3.729-.509.514-1.205.807-2.006.807-.809 0-1.48-.293-1.991-.807-.825-.829-.937-2.254-.937-3.729 0-1.476.111-2.9.937-3.724.511-.514 1.183-.79 1.991-.79.801 0 1.497.276 2.006.79.83.824.938 2.249.938 3.724zm2.734 0c0-2.276-.32-3.994-1.607-5.331-.884-.917-2.226-1.618-4.071-1.618-1.855 0-3.165.701-4.057 1.618-1.282 1.337-1.61 3.055-1.61 5.331 0 2.309.328 4.026 1.61 5.369.892.905 2.201 1.612 4.057 1.612 1.846 0 3.188-.707 4.071-1.612 1.287-1.342 1.607-3.06 1.607-5.369zM863.392 174.044v11.264h-2.734v-11.264h-1.552v-2.094h1.552v-2.088c0-1.967 1.177-3.784 3.729-3.784h1.718v2.331h-1.21c-1.022 0-1.503.586-1.503 1.591v1.95h2.713v2.094h-2.713zM880.801 168.808v16.5h-2.897v-16.5h-5.253v-2.597h13.406v2.597h-5.256zM893.834 177.397h-6.117c.033-.835.086-1.237.356-1.856.428-1.017 1.417-1.707 2.712-1.707 1.284 0 2.248.69 2.68 1.707.264.619.35 1.022.369 1.856zm2.707 1.906v-1.215c0-3.855-2.115-6.546-5.756-6.546-3.491 0-5.772 2.552-5.772 6.949 0 5.176 2.704 6.981 6.12 6.981 2.384 0 3.696-.729 5.088-2.126l-1.737-1.641c-.967.972-1.775 1.397-3.301 1.397-2.226 0-3.466-1.464-3.466-3.801h8.824zM904.645 185.473c-3.052 0-6.06-1.883-6.06-6.981 0-5.094 3.008-6.949 6.06-6.949 1.879 0 3.193.541 4.48 1.911l-1.873 1.822c-.861-.938-1.529-1.298-2.607-1.298-1.044 0-1.928.442-2.516 1.216-.594.751-.81 1.718-.81 3.298 0 1.574.216 2.579.81 3.331.588.773 1.472 1.204 2.516 1.204 1.078 0 1.746-.349 2.607-1.287l1.873 1.801c-1.287 1.357-2.602 1.932-4.48 1.932zM919.64 185.308v-8.347c0-2.055-1.204-2.983-2.734-2.983-1.527 0-2.765.956-2.765 2.983v8.347h-2.734v-19.097h2.734v6.866c.939-1.021 2.171-1.535 3.519-1.535 3.027 0 4.718 2.038 4.718 4.993v8.772h-2.738zM933.988 185.308v-8.292c0-2.109-1.204-3.038-2.734-3.038-1.524 0-2.817.956-2.817 3.038v8.292h-2.729v-13.605h2.677v1.375c.941-1.021 2.253-1.535 3.62-1.535 1.393 0 2.547.464 3.351 1.242 1.05 1.022 1.37 2.304 1.37 3.84v8.684h-2.738zM948.02 178.491c0 1.475-.111 2.899-.939 3.729-.511.514-1.204.807-2.014.807-.804 0-1.475-.293-1.985-.807-.832-.829-.934-2.254-.934-3.729 0-1.476.102-2.9.934-3.724.511-.514 1.182-.79 1.985-.79.81 0 1.503.276 2.014.79.827.824.939 2.249.939 3.724zm2.728 0c0-2.276-.317-3.994-1.602-5.331-.89-.917-2.232-1.618-4.08-1.618s-3.165.701-4.052 1.618c-1.287 1.337-1.602 3.055-1.602 5.331 0 2.309.314 4.026 1.602 5.369.887.905 2.204 1.612 4.052 1.612s3.19-.707 4.08-1.612c1.285-1.342 1.602-3.06 1.602-5.369zM957.217 185.308c-2.602 0-3.729-1.746-3.729-3.762v-15.335h2.736v15.18c0 1.039.379 1.58 1.473 1.58h1.215v2.337h-1.695zM968.458 178.491c0 1.475-.11 2.899-.939 3.729-.514.514-1.21.807-2.013.807-.805 0-1.476-.293-1.986-.807-.828-.829-.931-2.254-.931-3.729 0-1.476.103-2.9.931-3.724.511-.514 1.182-.79 1.986-.79.803 0 1.499.276 2.013.79.829.824.939 2.249.939 3.724zm2.734 0c0-2.276-.326-3.994-1.61-5.331-.884-.917-2.224-1.618-4.076-1.618-1.849 0-3.163.701-4.05 1.618-1.281 1.337-1.607 3.055-1.607 5.331 0 2.309.326 4.026 1.607 5.369.887.905 2.201 1.612 4.05 1.612 1.853 0 3.192-.707 4.076-1.612 1.284-1.342 1.61-3.06 1.61-5.369zM981.654 178.253c0 2.144-.298 4.265-2.765 4.265-2.466 0-2.786-2.121-2.786-4.265 0-2.148.32-4.275 2.786-4.275 2.467 0 2.765 2.126 2.765 4.275zm2.733 6.966v-13.517h-2.654v1.458c-1.017-1.237-2.121-1.618-3.568-1.618-1.365 0-2.517.437-3.268 1.188-1.315 1.314-1.527 3.215-1.527 5.523 0 2.31.212 4.21 1.527 5.519.751.763 1.875 1.216 3.245 1.216 1.392 0 2.519-.382 3.513-1.563v1.745c0 1.817-.884 3.458-3.188 3.458-1.348 0-2.096-.408-2.955-1.209l-1.745 1.751c1.425 1.309 2.734 1.79 4.8 1.79 3.618-.001 5.82-2.41 5.82-5.741zM992.998 188.014c-.273.752-.597 1.287-.994 1.68-.748.751-1.743.994-2.793.994h-1.096v-2.469h.693c1.16 0 1.563-.337 1.961-1.447l.751-2.11-4.745-12.959h2.895l3.242 9.584 3.166-9.584H999l-6.002 16.311z"/></g></svg>